<?xml version="1.0" encoding="utf-8"?>
<!-- Generator: Adobe Illustrator 16.0.0, SVG Export Plug-In . SVG Version: 6.00 Build 0)  -->
<!DOCTYPE svg PUBLIC "-//W3C//DTD SVG 1.1//EN" "http://www.w3.org/Graphics/SVG/1.1/DTD/svg11.dtd">
<svg version="1.1" id="Layer_1" xmlns="http://www.w3.org/2000/svg" xmlns:xlink="http://www.w3.org/1999/xlink" x="0px" y="0px"
	 width="1280px" height="800px" viewBox="0 0 1280 800" style="enable-background:new 0 0 1280 800;" xml:space="preserve">
<style type="text/css">
<![CDATA[
	.st0{clip-path:url(#SVGID_9_);fill:url(#SVGID_10_);}
	.st1{filter:url(#Adobe_OpacityMaskFilter);}
	.st2{opacity:0.75;}
	.st3{fill:#BA874E;}
	.st4{clip-path:url(#SVGID_2_);}
	.st5{clip-path:url(#SVGID_7_);}
	.st6{clip-path:url(#SVGID_14_);fill:url(#SVGID_15_);}
	.st7{opacity:0.5;}
	.st8{opacity:0.7;}
	.st9{fill:#FFFFFF;}
	.st10{clip-path:url(#SVGID_4_);fill:url(#SVGID_5_);}
	.st11{clip-path:url(#SVGID_19_);mask:url(#SVGID_20_);fill:url(#SVGID_22_);}
	.st12{clip-path:url(#SVGID_19_);fill:url(#SVGID_21_);}
	.st13{clip-path:url(#SVGID_12_);}
	.st14{clip-path:url(#SVGID_17_);}
]]>
</style>
<g>
	<g>
		<g>
			<path class="st9" d="M546.683,271.724v111.884c0,6.57,6.697,11.019,12.75,8.472l48.798-20.51v-58.938l-56.874-37.798
				L546.683,271.724z"/>
			<g class="st7">
				<g>
					<defs>
						<rect id="SVGID_1_" x="546.683" y="271.724" width="61.548" height="121.084"/>
					</defs>
					<clipPath id="SVGID_2_">
						<use xlink:href="#SVGID_1_"  style="overflow:visible;"/>
					</clipPath>
					<g class="st4">
						<defs>
							<path id="SVGID_3_" d="M546.683,271.724v111.883c0,6.571,6.697,11.019,12.749,8.473l48.799-20.51v-58.939l-56.875-37.798
								L546.683,271.724z"/>
						</defs>
						<clipPath id="SVGID_4_">
							<use xlink:href="#SVGID_3_"  style="overflow:visible;"/>
						</clipPath>
						
							<linearGradient id="SVGID_5_" gradientUnits="userSpaceOnUse" x1="221.0024" y1="697.9922" x2="222.0024" y2="697.9922" gradientTransform="matrix(0 121.084 121.084 0 -83938.1875 -26488.125)">
							<stop  offset="0" style="stop-color:#FFFFFF"/>
							<stop  offset="1" style="stop-color:#231F20"/>
						</linearGradient>
						<rect x="546.683" y="271.724" class="st10" width="61.548" height="122.902"/>
					</g>
				</g>
			</g>
			<path class="st9" d="M658.219,236.814c-8.44-5.624-19.13-6.638-28.478-2.713l-78.903,33.16l56.302,37.487l56.352-23.687v-34.404
				C663.492,242.701,661.514,239.005,658.219,236.814"/>
			<g class="st7">
				<g>
					<defs>
						<rect id="SVGID_6_" x="550.838" y="231.741" width="112.654" height="73.008"/>
					</defs>
					<clipPath id="SVGID_7_">
						<use xlink:href="#SVGID_6_"  style="overflow:visible;"/>
					</clipPath>
					<g class="st5">
						<defs>
							<path id="SVGID_8_" d="M658.219,236.815c-8.44-5.624-19.131-6.638-28.478-2.713l-78.903,33.16l56.302,37.487l56.352-23.687
								v-34.404C663.492,242.701,661.513,239.005,658.219,236.815"/>
						</defs>
						<clipPath id="SVGID_9_">
							<use xlink:href="#SVGID_8_"  style="overflow:visible;"/>
						</clipPath>
						
							<linearGradient id="SVGID_10_" gradientUnits="userSpaceOnUse" x1="220.9912" y1="698.0039" x2="221.9912" y2="698.0039" gradientTransform="matrix(112.6539 0 0 -112.6539 -24344.75 78900.4375)">
							<stop  offset="0" style="stop-color:#FFFFFF"/>
							<stop  offset="1" style="stop-color:#231F20"/>
						</linearGradient>
						<rect x="550.838" y="230.177" class="st0" width="112.654" height="74.572"/>
					</g>
				</g>
			</g>
			<path class="st3" d="M670.771,354.332l-2.411-1.604l-106.998,44.805l43.981,29.276c10.955,7.297,24.845,8.625,36.991,3.541
				l87.557-36.661l-1.511-1.01L670.771,354.332z"/>
			<g class="st8">
				<g>
					<defs>
						<rect id="SVGID_11_" x="561.361" y="352.727" width="168.528" height="80.673"/>
					</defs>
					<clipPath id="SVGID_12_">
						<use xlink:href="#SVGID_11_"  style="overflow:visible;"/>
					</clipPath>
					<g class="st13">
						<defs>
							<path id="SVGID_13_" d="M670.77,354.332l-2.41-1.605l-106.999,44.806l43.981,29.276c10.956,7.297,24.845,8.625,36.991,3.543
								l87.556-36.663l-1.509-1.01L670.77,354.332z"/>
						</defs>
						<clipPath id="SVGID_14_">
							<use xlink:href="#SVGID_13_"  style="overflow:visible;"/>
						</clipPath>
						
							<linearGradient id="SVGID_15_" gradientUnits="userSpaceOnUse" x1="220.9941" y1="697.9922" x2="221.9941" y2="697.9922" gradientTransform="matrix(168.5284 0 0 -168.5284 -36682.375 118025.5)">
							<stop  offset="0" style="stop-color:#231F20"/>
							<stop  offset="1" style="stop-color:#FFFFFF"/>
						</linearGradient>
						<rect x="561.361" y="352.727" class="st6" width="168.528" height="82.707"/>
					</g>
				</g>
			</g>
			<path class="st3" d="M711.142,272.044l-40.371-26.874v101.942l61.552,40.975v-76.501
				C732.322,295.691,724.373,280.854,711.142,272.044"/>
			<g class="st2">
				<g>
					<defs>
						<rect id="SVGID_16_" x="670.77" y="245.17" width="61.554" height="142.917"/>
					</defs>
					<clipPath id="SVGID_17_">
						<use xlink:href="#SVGID_16_"  style="overflow:visible;"/>
					</clipPath>
					<g class="st14">
						<defs>
							<path id="SVGID_18_" d="M711.141,272.044L670.77,245.17v101.942l61.554,40.975v-76.501
								C732.323,295.691,724.373,280.854,711.141,272.044"/>
						</defs>
						<clipPath id="SVGID_19_">
							<use xlink:href="#SVGID_18_"  style="overflow:visible;"/>
						</clipPath>
						<defs>
							<filter id="Adobe_OpacityMaskFilter" filterUnits="userSpaceOnUse" x="670.77" y="245.17" width="61.554" height="142.917">
								<feColorMatrix  type="matrix" values="1 0 0 0 0  0 1 0 0 0  0 0 1 0 0  0 0 0 1 0"/>
							</filter>
						</defs>
						<mask maskUnits="userSpaceOnUse" x="670.77" y="245.17" width="61.554" height="142.917" id="SVGID_20_">
							<g class="st1">
								
									<linearGradient id="SVGID_21_" gradientUnits="userSpaceOnUse" x1="220.9839" y1="697.9961" x2="221.9839" y2="697.9961" gradientTransform="matrix(61.5525 0 0 -61.5525 -12931.3438 43280.0313)">
									<stop  offset="0" style="stop-color:#000000"/>
									<stop  offset="1" style="stop-color:#FFFFFF"/>
								</linearGradient>
								<rect x="670.77" y="245.17" class="st12" width="61.554" height="142.917"/>
							</g>
						</mask>
						
							<linearGradient id="SVGID_22_" gradientUnits="userSpaceOnUse" x1="220.9839" y1="697.9961" x2="221.9839" y2="697.9961" gradientTransform="matrix(61.5525 0 0 -61.5525 -12931.3438 43280.0313)">
							<stop  offset="0" style="stop-color:#231F20"/>
							<stop  offset="1" style="stop-color:#231F20"/>
						</linearGradient>
						<rect x="670.77" y="245.17" class="st11" width="61.554" height="142.917"/>
					</g>
				</g>
			</g>
		</g>
	</g>
</g>
</svg>
